<mxfile host="app.diagrams.net" modified="2023-07-20T04:19:32.007Z" agent="Mozilla/5.0 (Macintosh; Intel Mac OS X 10_15_7) AppleWebKit/537.36 (KHTML, like Gecko) Chrome/114.0.0.0 Safari/537.36" version="21.5.2" etag="8mbQBpBdMEAafx-JFDnN" type="github">
  <diagram name="第 1 页" id="7c6sXlli5CMGMtgro3f5">
    <mxGraphModel>
      <root>
        <mxCell id="0" />
        <mxCell id="1" parent="0" />
      </root>
    </mxGraphModel>
  </diagram>
</mxfile>
